<mxfile host="app.diagrams.net" modified="2021-10-26T14:58:51.736Z" agent="5.0 (X11)" etag="HyLLkvQBuYF9mDdrd1n9" version="15.5.9" type="github">
  <diagram id="C5RBs43oDa-KdzZeNtuy" name="Page-1">
    <mxGraphModel dx="1185" dy="643" grid="1" gridSize="10" guides="1" tooltips="1" connect="1" arrows="1" fold="1" page="1" pageScale="1" pageWidth="827" pageHeight="1169" math="0" shadow="0">
      <root>
        <mxCell id="WIyWlLk6GJQsqaUBKTNV-0" />
        <mxCell id="WIyWlLk6GJQsqaUBKTNV-1" parent="WIyWlLk6GJQsqaUBKTNV-0" />
        <mxCell id="Me56u_hwa7tbCwoZh5Bt-0" value="Block" style="rounded=0;whiteSpace=wrap;html=1;" vertex="1" parent="WIyWlLk6GJQsqaUBKTNV-1">
          <mxGeometry x="540" y="210" width="120" height="50" as="geometry" />
        </mxCell>
        <mxCell id="Me56u_hwa7tbCwoZh5Bt-1" value="Name" style="ellipse;whiteSpace=wrap;html=1;fontStyle=4" vertex="1" parent="WIyWlLk6GJQsqaUBKTNV-1">
          <mxGeometry x="430" y="150" width="70" height="40" as="geometry" />
        </mxCell>
        <mxCell id="Me56u_hwa7tbCwoZh5Bt-5" value="Completion_date" style="ellipse;whiteSpace=wrap;html=1;" vertex="1" parent="WIyWlLk6GJQsqaUBKTNV-1">
          <mxGeometry x="500" y="110" width="120" height="40" as="geometry" />
        </mxCell>
        <mxCell id="Me56u_hwa7tbCwoZh5Bt-6" value="Height" style="ellipse;whiteSpace=wrap;html=1;" vertex="1" parent="WIyWlLk6GJQsqaUBKTNV-1">
          <mxGeometry x="640" y="110" width="70" height="40" as="geometry" />
        </mxCell>
        <mxCell id="Me56u_hwa7tbCwoZh5Bt-7" value="Location" style="ellipse;whiteSpace=wrap;html=1;" vertex="1" parent="WIyWlLk6GJQsqaUBKTNV-1">
          <mxGeometry x="710" y="160" width="70" height="40" as="geometry" />
        </mxCell>
        <mxCell id="Me56u_hwa7tbCwoZh5Bt-8" value="" style="endArrow=none;html=1;rounded=0;entryX=0.132;entryY=-0.01;entryDx=0;entryDy=0;entryPerimeter=0;exitX=0.94;exitY=0.758;exitDx=0;exitDy=0;exitPerimeter=0;" edge="1" parent="WIyWlLk6GJQsqaUBKTNV-1" source="Me56u_hwa7tbCwoZh5Bt-1" target="Me56u_hwa7tbCwoZh5Bt-0">
          <mxGeometry width="50" height="50" relative="1" as="geometry">
            <mxPoint x="490" y="180" as="sourcePoint" />
            <mxPoint x="544" y="130" as="targetPoint" />
          </mxGeometry>
        </mxCell>
        <mxCell id="Me56u_hwa7tbCwoZh5Bt-13" value="" style="endArrow=none;html=1;rounded=0;" edge="1" parent="WIyWlLk6GJQsqaUBKTNV-1">
          <mxGeometry width="50" height="50" relative="1" as="geometry">
            <mxPoint x="560" y="150" as="sourcePoint" />
            <mxPoint x="590" y="210" as="targetPoint" />
          </mxGeometry>
        </mxCell>
        <mxCell id="Me56u_hwa7tbCwoZh5Bt-14" value="" style="endArrow=none;html=1;rounded=0;" edge="1" parent="WIyWlLk6GJQsqaUBKTNV-1" target="Me56u_hwa7tbCwoZh5Bt-0">
          <mxGeometry width="50" height="50" relative="1" as="geometry">
            <mxPoint x="670" y="150" as="sourcePoint" />
            <mxPoint x="735.8400000000001" y="169.4999999999999" as="targetPoint" />
          </mxGeometry>
        </mxCell>
        <mxCell id="Me56u_hwa7tbCwoZh5Bt-15" value="" style="endArrow=none;html=1;rounded=0;entryX=0.854;entryY=0.007;entryDx=0;entryDy=0;entryPerimeter=0;" edge="1" parent="WIyWlLk6GJQsqaUBKTNV-1" target="Me56u_hwa7tbCwoZh5Bt-0">
          <mxGeometry width="50" height="50" relative="1" as="geometry">
            <mxPoint x="710" y="180.5" as="sourcePoint" />
            <mxPoint x="775.8400000000001" y="199.9999999999999" as="targetPoint" />
          </mxGeometry>
        </mxCell>
        <mxCell id="Me56u_hwa7tbCwoZh5Bt-16" value="Actor" style="shape=umlActor;verticalLabelPosition=bottom;verticalAlign=top;html=1;outlineConnect=0;" vertex="1" parent="WIyWlLk6GJQsqaUBKTNV-1">
          <mxGeometry x="70" y="190" width="130" height="230" as="geometry" />
        </mxCell>
        <mxCell id="Me56u_hwa7tbCwoZh5Bt-17" value="IS_PART_OF" style="rhombus;whiteSpace=wrap;html=1;" vertex="1" parent="WIyWlLk6GJQsqaUBKTNV-1">
          <mxGeometry x="540" y="300" width="120" height="60" as="geometry" />
        </mxCell>
        <mxCell id="Me56u_hwa7tbCwoZh5Bt-18" style="edgeStyle=orthogonalEdgeStyle;rounded=0;orthogonalLoop=1;jettySize=auto;html=1;exitX=0.5;exitY=1;exitDx=0;exitDy=0;" edge="1" parent="WIyWlLk6GJQsqaUBKTNV-1" source="Me56u_hwa7tbCwoZh5Bt-17" target="Me56u_hwa7tbCwoZh5Bt-17">
          <mxGeometry relative="1" as="geometry" />
        </mxCell>
      </root>
    </mxGraphModel>
  </diagram>
</mxfile>
